<svg width="53" height="19" fill="none" xmlns="http://www.w3.org/2000/svg"><g filter="url(#filter0_d)"><ellipse cx="9.502" cy="4.641" rx="3.75" ry="3.747" fill="#fff"/></g><g filter="url(#filter1_d)"><path d="M24.002 4.641a3.248 3.248 0 0 1-3.25 3.247 3.248 3.248 0 0 1-3.25-3.247 3.248 3.248 0 0 1 3.25-3.246 3.248 3.248 0 0 1 3.25 3.246z" stroke="#fff"/></g><g filter="url(#filter2_d)"><path d="M35.252 4.641a3.248 3.248 0 0 1-3.25 3.247 3.248 3.248 0 0 1-3.25-3.247 3.248 3.248 0 0 1 3.25-3.246 3.248 3.248 0 0 1 3.25 3.246z" stroke="#fff"/></g><g filter="url(#filter3_d)"><path d="M46.502 4.641a3.248 3.248 0 0 1-3.25 3.247 3.248 3.248 0 0 1-3.25-3.247 3.248 3.248 0 0 1 3.25-3.246 3.248 3.248 0 0 1 3.25 3.246z" stroke="#fff"/></g><defs><filter id="filter0_d" x=".752" y=".895" width="17.5" height="17.494" filterUnits="userSpaceOnUse" color-interpolation-filters="sRGB"><feFlood flood-opacity="0" result="BackgroundImageFix"/><feColorMatrix in="SourceAlpha" values="0 0 0 0 0 0 0 0 0 0 0 0 0 0 0 0 0 0 127 0"/><feOffset dy="5"/><feGaussianBlur stdDeviation="2.5"/><feColorMatrix values="0 0 0 0 0.121569 0 0 0 0 0.12549 0 0 0 0 0.254902 0 0 0 0.3 0"/><feBlend in2="BackgroundImageFix" result="effect1_dropShadow"/><feBlend in="SourceGraphic" in2="effect1_dropShadow" result="shape"/></filter><filter id="filter1_d" x="12.002" y=".895" width="17.5" height="17.494" filterUnits="userSpaceOnUse" color-interpolation-filters="sRGB"><feFlood flood-opacity="0" result="BackgroundImageFix"/><feColorMatrix in="SourceAlpha" values="0 0 0 0 0 0 0 0 0 0 0 0 0 0 0 0 0 0 127 0"/><feOffset dy="5"/><feGaussianBlur stdDeviation="2.5"/><feColorMatrix values="0 0 0 0 0.121569 0 0 0 0 0.12549 0 0 0 0 0.254902 0 0 0 0.3 0"/><feBlend in2="BackgroundImageFix" result="effect1_dropShadow"/><feBlend in="SourceGraphic" in2="effect1_dropShadow" result="shape"/></filter><filter id="filter2_d" x="23.252" y=".895" width="17.5" height="17.494" filterUnits="userSpaceOnUse" color-interpolation-filters="sRGB"><feFlood flood-opacity="0" result="BackgroundImageFix"/><feColorMatrix in="SourceAlpha" values="0 0 0 0 0 0 0 0 0 0 0 0 0 0 0 0 0 0 127 0"/><feOffset dy="5"/><feGaussianBlur stdDeviation="2.5"/><feColorMatrix values="0 0 0 0 0.121569 0 0 0 0 0.12549 0 0 0 0 0.254902 0 0 0 0.3 0"/><feBlend in2="BackgroundImageFix" result="effect1_dropShadow"/><feBlend in="SourceGraphic" in2="effect1_dropShadow" result="shape"/></filter><filter id="filter3_d" x="34.502" y=".895" width="17.5" height="17.494" filterUnits="userSpaceOnUse" color-interpolation-filters="sRGB"><feFlood flood-opacity="0" result="BackgroundImageFix"/><feColorMatrix in="SourceAlpha" values="0 0 0 0 0 0 0 0 0 0 0 0 0 0 0 0 0 0 127 0"/><feOffset dy="5"/><feGaussianBlur stdDeviation="2.5"/><feColorMatrix values="0 0 0 0 0.121569 0 0 0 0 0.12549 0 0 0 0 0.254902 0 0 0 0.3 0"/><feBlend in2="BackgroundImageFix" result="effect1_dropShadow"/><feBlend in="SourceGraphic" in2="effect1_dropShadow" result="shape"/></filter></defs></svg>